<svg width="32" height="30" viewBox="0 0 32 30" fill="none" xmlns="http://www.w3.org/2000/svg">
<path d="M9.28 18.5201V8.6001H3.2C1.44 8.6001 0 10.0401 0 11.8001V21.4001C0 23.1601 1.44 24.6001 3.2 24.6001H4.8V29.4001L9.6 24.6001H17.6C19.36 24.6001 20.8 23.1601 20.8 21.4001V18.4881C20.6948 18.5107 20.5876 18.5219 20.48 18.5217H9.28V18.5201V18.5201ZM28.8 0.600098H14.4C12.64 0.600098 11.2 2.0401 11.2 3.8001V16.6001H22.4L27.2 21.4001V16.6001H28.8C30.56 16.6001 32 15.1617 32 13.4001V3.8001C32 2.0401 30.56 0.600098 28.8 0.600098Z" fill="white"/>
</svg>
