<svg width="38" height="38" viewBox="0 0 38 38" fill="none" xmlns="http://www.w3.org/2000/svg">
<path d="M24.6142 18.9804C25.3271 18.1467 25.75 17.0592 25.75 15.875C25.75 13.6275 24.2154 11.7304 22.125 11.1988V8.625H19.7083V11.0417H17.2917V8.625H14.875V11.0417H11.25V13.4583H13.6667V25.5417H11.25V27.9583H14.875V30.375H17.2917V27.9583H19.7083V30.375H22.125V27.9583C24.7954 27.9583 26.9583 25.7954 26.9583 23.125C26.9583 21.3729 26.0158 19.8263 24.6142 18.9804ZM16.0833 13.4583H20.9167C22.2458 13.4583 23.3333 14.5458 23.3333 15.875C23.3333 17.2042 22.2458 18.2917 20.9167 18.2917H16.0833V13.4583ZM22.125 25.5417H16.0833V20.7083H22.125C23.4542 20.7083 24.5417 21.7958 24.5417 23.125C24.5417 24.4542 23.4542 25.5417 22.125 25.5417Z" fill="white"/>
<circle cx="19" cy="19" r="18.5" stroke="white"/>
</svg>
