<svg width="38" height="38" viewBox="0 0 38 38" fill="none" xmlns="http://www.w3.org/2000/svg">
<g clip-path="url(#clip0_204_1510)">
<path d="M29.5539 8.41875V19.0001C29.5539 19.0001 29.5539 20.0525 29.2029 21.6742C28.4725 21.2779 27.6739 20.9914 26.8293 20.8378C26.3603 20.7517 25.8764 20.7071 25.3828 20.7071C20.9557 20.7071 17.3672 24.2956 17.3672 28.7228C17.3672 29.9919 17.6626 31.192 18.188 32.2586C18.6052 33.1076 19.1685 33.8713 19.8446 34.5185C18.5562 35.3 17.097 36.0162 15.4449 36.636C1.33594 31.3457 1.33594 19.0001 1.33594 19.0001V8.41875C8.39043 8.41875 15.4449 1.36426 15.4449 1.36426C15.4449 1.36426 22.4994 8.41875 29.5539 8.41875Z" stroke="white" stroke-miterlimit="10" stroke-linecap="round" stroke-linejoin="round"/>
<path d="M33.3984 28.7227C33.3984 33.1498 29.81 36.7383 25.3828 36.7383C23.2349 36.7383 21.2845 35.8929 19.8446 34.5184C19.1685 33.8712 18.6052 33.1075 18.188 32.2584C17.6626 31.1919 17.3672 29.9918 17.3672 28.7227C17.3672 24.2955 20.9557 20.707 25.3828 20.707C25.8764 20.707 26.3603 20.7516 26.8293 20.8377C27.6739 20.9913 28.4725 21.2778 29.2029 21.6741C30.0994 22.161 30.8936 22.8141 31.5415 23.5927L25.794 29.3394L25.7205 29.2659L23.894 27.4394L22.1973 25.7428L20.0391 27.9011L25.794 33.656L27.9523 31.4977L33.0548 26.3959C33.2782 27.1321 33.3984 27.9137 33.3984 28.7227Z" stroke="white" stroke-miterlimit="10" stroke-linecap="round" stroke-linejoin="round"/>
<path d="M36.5854 22.8653L33.0548 26.3959L27.9523 31.4977L25.794 33.656L20.0391 27.9011L22.1973 25.7428L23.894 27.4394L25.7205 29.2659L25.794 29.3394L31.5415 23.5927L34.4271 20.707L36.5854 22.8653Z" stroke="white" stroke-miterlimit="10" stroke-linecap="round" stroke-linejoin="round"/>
<path d="M27.0446 10.3002V19.0001C27.0446 19.0001 27.0446 19.7111 26.8294 20.8378C26.3603 20.7517 25.8764 20.7071 25.3828 20.7071C20.9557 20.7071 17.3672 24.2956 17.3672 28.7228C17.3672 29.9919 17.6626 31.192 18.1881 32.2586C17.3546 32.7091 16.4424 33.1262 15.4449 33.5002C3.84454 29.1503 3.84454 19.0001 3.84454 19.0001V10.3002C9.64474 10.3002 15.4449 4.5 15.4449 4.5C15.4449 4.5 21.2444 10.3002 27.0446 10.3002Z" stroke="white" stroke-miterlimit="10" stroke-linecap="round" stroke-linejoin="round"/>
</g>
<defs>
<clipPath id="clip0_204_1510">
<rect width="38" height="38" fill="white"/>
</clipPath>
</defs>
</svg>
