<svg width="35" height="42" viewBox="0 0 35 42" fill="none" xmlns="http://www.w3.org/2000/svg">
<path d="M27.8887 41C28.4998 41 29.722 40.6308 29.722 39.1538V29.3077C29.722 28.0769 28.9887 25.6154 26.0554 25.6154H16.8887V15.1538C16.8887 12.6923 12.6109 12.0769 12.6109 15.1538V31.7693C11.5924 31.5641 9.31092 30.7846 8.33314 29.3077C7.72222 28.0769 4.66639 27.4616 5.27758 31.7693C5.53953 33.6154 6.62203 37.0615 11.9998 41M8.94444 19.4616L4.05556 23.7692L1 20.0769L15.6667 7.15385L20.5556 11.4615L27.8887 4.69231L24.8333 1H34L33.3889 10.2308L30.9444 7.76924L20.5556 17" stroke="white"/>
</svg>
