<svg width="47" height="49" viewBox="0 0 47 49" fill="none" xmlns="http://www.w3.org/2000/svg">
<path d="M39 25.9666H37.9017L35 30.9601L32.0983 25.9666H31L33.9331 30.9601H31.1311V31.8681H34.5164V33.23H31.1311V34.1379H34.5164V35.9537H35.4836V34.1379H38.8689V33.23H35.4836V31.8681H38.8689V30.9601H36.0669L39 25.9666Z" fill="white"/>
<path d="M45.5 30.9603C45.5 36.1766 41.0467 40.4475 35.5 40.4475C29.9533 40.4475 25.5 36.1766 25.5 30.9603C25.5 25.744 29.9533 21.4731 35.5 21.4731C41.0467 21.4731 45.5 25.744 45.5 30.9603Z" stroke="white"/>
<path d="M23.2989 15.1471C21.3828 15.1471 19.9431 14.1912 19.3533 12.6503H24.3586V11.818H19.1297C19.0832 11.5421 19.0599 11.2641 19.0598 10.9858C19.0598 10.8485 19.0651 10.7095 19.0735 10.5696H24.3586V9.73738H19.1854C19.5075 8.21933 20.5487 6.82445 23.2989 6.82445C25.3405 6.82445 26.2302 7.50982 27.0759 8.69289L28 8.28508C27.1485 7.09452 25.9896 5.99219 23.2989 5.99219C19.9314 5.99219 18 7.81235 18 10.9858C18 13.9257 20.1789 15.9794 23.2989 15.9794C25.9896 15.9794 27.1485 14.8774 28 13.6865L27.0759 13.2787C26.2302 14.4621 25.3405 15.1471 23.2989 15.1471Z" fill="white"/>
<path d="M33.5 10.986C33.5 16.2023 29.0467 20.4731 23.5 20.4731C17.9533 20.4731 13.5 16.2023 13.5 10.986C13.5 5.76963 17.9533 1.49878 23.5 1.49878C29.0467 1.49878 33.5 5.76963 33.5 10.986Z" stroke="white"/>
<path d="M15 33.7143C15 31.4097 12.9537 31.1471 11.3096 30.9364C9.5178 30.7066 8.50386 30.5069 8.50386 29.0837C8.50386 27.8893 9.86101 27.4648 11.0233 27.4648C11.6025 27.4476 12.1779 27.5575 12.7019 27.7857C13.226 28.0139 13.6838 28.3537 14.0375 28.7771L14.8798 28.1499C14.501 27.7006 14.0297 27.3247 13.4929 27.044C12.9561 26.7633 12.3644 26.5832 11.7519 26.514V24.968H10.6692V26.4771C8.71227 26.5869 7.42117 27.6056 7.42117 29.0837C7.42117 31.4457 9.49452 31.7119 11.1602 31.9251C12.9212 32.1513 13.9173 32.3455 13.9173 33.7143C13.9173 35.2283 12.2213 35.4545 11.2106 35.4545C9.35377 35.4545 8.5699 34.9732 7.84233 34.1422L7 34.7694C7.42916 35.2911 7.98422 35.7133 8.62115 36.0026C9.25807 36.2918 9.95932 36.4402 10.6692 36.4358V37.9513H11.7519V36.4308C13.769 36.279 15 35.2688 15 33.7143Z" fill="white"/>
<path d="M20.5 30.9603C20.5 36.1993 16.2473 40.4475 11 40.4475C5.75269 40.4475 1.5 36.1993 1.5 30.9603C1.5 25.7213 5.75269 21.4731 11 21.4731C16.2473 21.4731 20.5 25.7213 20.5 30.9603Z" stroke="white"/>
<path d="M3.92035 18.9756C2.0148 15.7714 2.48679 8.90524 11 8.90524M11 8.90524L8.64015 7.98975M11 8.90524L9.11213 10.2785" stroke="white"/>
<path d="M29.031 41.541C27.6636 45.0085 21.9417 48.844 16.7244 42.1255M16.7244 42.1255L17.4463 44.5489M16.7244 42.1255L18.9679 42.7737" stroke="white"/>
<path d="M35.5399 8.78575C39.2712 8.73971 44.9891 12.581 40.7325 19.9442M40.7325 19.9442L42.7063 18.3609M40.7325 19.9442L40.4857 17.6248" stroke="white"/>
</svg>
