<svg width="38" height="38" viewBox="0 0 38 38" fill="none" xmlns="http://www.w3.org/2000/svg">
<path d="M17.8125 24.3438V25.5312H19V24.3438H20.1875V25.5312H21.375V24.2345C21.6515 24.1389 21.8998 23.976 22.0977 23.7605C22.2956 23.5451 22.4368 23.2838 22.5087 23.0002C22.5805 22.7166 22.5807 22.4196 22.5093 22.1359C22.4378 21.8522 22.297 21.5907 22.0994 21.375C22.297 21.1593 22.4378 20.8978 22.5093 20.6141C22.5807 20.3304 22.5805 20.0334 22.5087 19.7498C22.4368 19.4662 22.2956 19.2049 22.0977 18.9895C21.8998 18.774 21.6515 18.6111 21.375 18.5155V17.2188H20.1875V18.4062H19V17.2188H17.8125V18.4062H16.0312V19.5938H16.625V23.1562H16.0312V24.3438H17.8125ZM20.7813 23.1562H17.8125V21.9688H20.7813C20.9387 21.9688 21.0897 22.0313 21.2011 22.1427C21.3124 22.254 21.375 22.405 21.375 22.5625C21.375 22.72 21.3124 22.871 21.2011 22.9823C21.0897 23.0937 20.9387 23.1562 20.7813 23.1562ZM17.8125 19.5938H20.7813C20.9387 19.5938 21.0897 19.6563 21.2011 19.7677C21.3124 19.879 21.375 20.03 21.375 20.1875C21.375 20.345 21.3124 20.496 21.2011 20.6073C21.0897 20.7187 20.9387 20.7812 20.7813 20.7812H17.8125V19.5938Z" fill="white"/>
<path d="M31.8885 25.1115L30.2812 23.5042V21.9688H32.0625V20.7812H30.2812V19.2458L31.8885 17.6385L31.049 16.799L30.2812 17.5667V4.15625C30.2803 3.36918 29.9672 2.61461 29.4107 2.05807C28.8541 1.50152 28.0996 1.18844 27.3125 1.1875H10.6875C9.90043 1.18844 9.14586 1.50152 8.58932 2.05807C8.03277 2.61461 7.71969 3.36918 7.71875 4.15625V17.5667L6.95103 16.799L6.11147 17.6385L7.71875 19.2458V20.7812H5.9375V21.9688H7.71875V23.5042L6.11147 25.1115L6.95103 25.951L7.71875 25.1833V33.8438C7.71969 34.6308 8.03277 35.3854 8.58932 35.9419C9.14586 36.4985 9.90043 36.8116 10.6875 36.8125H27.3125C28.0996 36.8116 28.8541 36.4985 29.4107 35.9419C29.9672 35.3854 30.2803 34.6308 30.2812 33.8438V25.1833L31.049 25.951L31.8885 25.1115ZM29.0938 23.1562H25.2783C25.3894 22.7682 25.4639 22.3707 25.501 21.9688H29.0938V23.1562ZM25.501 20.7812C25.4639 20.3793 25.3894 19.9818 25.2783 19.5938H29.0938V20.7812H25.501ZM14.8438 2.375H23.1562V3.5625H14.8438V2.375ZM10.6875 2.375H13.6562V3.5625C13.6562 3.87744 13.7814 4.17949 14.0041 4.40219C14.2268 4.62489 14.5288 4.75 14.8438 4.75H23.1562C23.4712 4.75 23.7732 4.62489 23.9959 4.40219C24.2186 4.17949 24.3438 3.87744 24.3438 3.5625V2.375H27.3125C27.7849 2.375 28.238 2.56267 28.572 2.89672C28.9061 3.23077 29.0938 3.68383 29.0938 4.15625V18.4062H24.8104C24.3089 17.4256 23.5678 16.5876 22.6558 15.9701C21.7437 15.3526 20.6905 14.9756 19.5938 14.874V13.0625H21.3613C21.5188 13.0625 21.6698 12.9999 21.7811 12.8885L24.1656 10.5094L23.3261 9.66981L21.1155 11.875H19.5938V10.6875H18.4062V11.875H16.8845L14.6769 9.66684L13.8373 10.5094L16.2189 12.8915C16.3302 13.0029 16.4812 13.0654 16.6387 13.0655H18.4062V14.877C17.3098 14.9782 16.2567 15.3548 15.3448 15.9718C14.4328 16.5888 13.6914 17.4262 13.1896 18.4062H8.90625V4.15625C8.90625 3.68383 9.09392 3.23077 9.42797 2.89672C9.76202 2.56267 10.2151 2.375 10.6875 2.375ZM19 16.0312C20.0569 16.0312 21.0901 16.3447 21.9688 16.9318C22.8476 17.519 23.5325 18.3536 23.937 19.33C24.3414 20.3065 24.4473 21.3809 24.2411 22.4175C24.0349 23.4541 23.5259 24.4063 22.7786 25.1536C22.0313 25.9009 21.0791 26.4099 20.0425 26.6161C19.0059 26.8223 17.9315 26.7164 16.955 26.312C15.9786 25.9075 15.144 25.2226 14.5568 24.3438C13.9697 23.4651 13.6562 22.4319 13.6562 21.375C13.6578 19.9582 14.2213 18.5999 15.2231 17.5981C16.2249 16.5963 17.5832 16.0328 19 16.0312ZM8.90625 19.5938H12.7217C12.6106 19.9818 12.5361 20.3793 12.499 20.7812H8.90625V19.5938ZM12.499 21.9688C12.5361 22.3707 12.6106 22.7682 12.7217 23.1562H8.90625V21.9688H12.499ZM27.3125 35.625H10.6875C10.2151 35.625 9.76202 35.4373 9.42797 35.1033C9.09392 34.7692 8.90625 34.3162 8.90625 33.8438V24.3438H13.1896C13.7351 25.4159 14.5666 26.3162 15.5921 26.945C16.6176 27.5738 17.7971 27.9066 19 27.9066C20.2029 27.9066 21.3824 27.5738 22.4079 26.945C23.4334 26.3162 24.2649 25.4159 24.8104 24.3438H29.0938V33.8438C29.0938 34.3162 28.9061 34.7692 28.572 35.1033C28.238 35.4373 27.7849 35.625 27.3125 35.625Z" fill="white"/>
<path d="M33.25 17.2188C33.6023 17.2188 33.9467 17.1143 34.2396 16.9186C34.5325 16.7228 34.7608 16.4446 34.8957 16.1192C35.0305 15.7937 35.0658 15.4355 34.997 15.09C34.9283 14.7445 34.7586 14.4271 34.5095 14.178C34.2604 13.9289 33.943 13.7592 33.5975 13.6905C33.252 13.6217 32.8938 13.657 32.5683 13.7918C32.2429 13.9267 31.9647 14.155 31.7689 14.4479C31.5732 14.7408 31.4687 15.0852 31.4687 15.4375C31.4687 15.9099 31.6564 16.363 31.9905 16.697C32.3245 17.0311 32.7776 17.2188 33.25 17.2188ZM33.25 14.8438C33.3674 14.8438 33.4822 14.8786 33.5799 14.9438C33.6775 15.0091 33.7536 15.1018 33.7985 15.2103C33.8435 15.3188 33.8552 15.4382 33.8323 15.5533C33.8094 15.6685 33.7529 15.7743 33.6698 15.8573C33.5868 15.9404 33.481 15.9969 33.3658 16.0198C33.2507 16.0428 33.1313 16.031 33.0228 15.9861C32.9143 15.9411 32.8216 15.865 32.7563 15.7674C32.6911 15.6697 32.6562 15.5549 32.6562 15.4375C32.6562 15.28 32.7188 15.129 32.8302 15.0177C32.9415 14.9063 33.0925 14.8438 33.25 14.8438ZM35.0312 19.5938C34.6789 19.5938 34.3346 19.6982 34.0416 19.8939C33.7487 20.0897 33.5204 20.3679 33.3856 20.6933C33.2508 21.0188 33.2155 21.377 33.2842 21.7225C33.353 22.068 33.5226 22.3854 33.7717 22.6345C34.0208 22.8836 34.3382 23.0533 34.6837 23.122C35.0293 23.1908 35.3874 23.1555 35.7129 23.0207C36.0384 22.8858 36.3166 22.6575 36.5123 22.3646C36.708 22.0717 36.8125 21.7273 36.8125 21.375C36.8125 20.9026 36.6248 20.4495 36.2908 20.1155C35.9567 19.7814 35.5037 19.5938 35.0312 19.5938ZM35.0312 21.9688C34.9138 21.9688 34.799 21.9339 34.7014 21.8687C34.6037 21.8034 34.5276 21.7107 34.4827 21.6022C34.4378 21.4937 34.426 21.3743 34.4489 21.2592C34.4718 21.144 34.5284 21.0382 34.6114 20.9552C34.6944 20.8721 34.8002 20.8156 34.9154 20.7927C35.0306 20.7698 35.15 20.7815 35.2585 20.8265C35.367 20.8714 35.4597 20.9475 35.5249 21.0451C35.5902 21.1428 35.625 21.2576 35.625 21.375C35.625 21.5325 35.5624 21.6835 35.4511 21.7948C35.3397 21.9062 35.1887 21.9688 35.0312 21.9688ZM33.25 25.5313C32.8977 25.5313 32.5533 25.6357 32.2604 25.8314C31.9675 26.0272 31.7392 26.3054 31.6043 26.6308C31.4695 26.9563 31.4342 27.3145 31.503 27.66C31.5717 28.0055 31.7414 28.3229 31.9905 28.572C32.2396 28.8211 32.557 28.9908 32.9025 29.0595C33.248 29.1283 33.6062 29.093 33.9317 28.9582C34.2571 28.8233 34.5353 28.595 34.7311 28.3021C34.9268 28.0092 35.0312 27.6648 35.0312 27.3125C35.0312 26.8401 34.8436 26.387 34.5095 26.053C34.1755 25.7189 33.7224 25.5313 33.25 25.5313ZM33.25 27.9063C33.1326 27.9063 33.0178 27.8714 32.9201 27.8062C32.8225 27.7409 32.7464 27.6482 32.7014 27.5397C32.6565 27.4312 32.6447 27.3118 32.6677 27.1967C32.6906 27.0815 32.7471 26.9757 32.8302 26.8927C32.9132 26.8096 33.019 26.7531 33.1342 26.7302C33.2493 26.7073 33.3687 26.719 33.4772 26.764C33.5857 26.8089 33.6784 26.885 33.7437 26.9826C33.8089 27.0803 33.8437 27.1951 33.8437 27.3125C33.8437 27.47 33.7812 27.621 33.6698 27.7323C33.5585 27.8437 33.4075 27.9063 33.25 27.9063ZM4.75 17.2188C5.1023 17.2188 5.44668 17.1143 5.73961 16.9186C6.03254 16.7228 6.26084 16.4446 6.39566 16.1192C6.53048 15.7937 6.56575 15.4355 6.49702 15.09C6.42829 14.7445 6.25865 14.4271 6.00953 14.178C5.76042 13.9289 5.44303 13.7592 5.09751 13.6905C4.75198 13.6217 4.39383 13.657 4.06835 13.7918C3.74286 13.9267 3.46467 14.155 3.26895 14.4479C3.07322 14.7408 2.96875 15.0852 2.96875 15.4375C2.96875 15.9099 3.15642 16.363 3.49047 16.697C3.82452 17.0311 4.27758 17.2188 4.75 17.2188ZM4.75 14.8438C4.86743 14.8438 4.98223 14.8786 5.07987 14.9438C5.17751 15.0091 5.25361 15.1018 5.29855 15.2103C5.34349 15.3188 5.35525 15.4382 5.33234 15.5533C5.30943 15.6685 5.25288 15.7743 5.16985 15.8573C5.08681 15.9404 4.98101 15.9969 4.86584 16.0198C4.75066 16.0428 4.63128 16.031 4.52278 15.9861C4.41429 15.9411 4.32156 15.865 4.25632 15.7674C4.19107 15.6697 4.15625 15.5549 4.15625 15.4375C4.15625 15.28 4.21881 15.129 4.33016 15.0177C4.44151 14.9063 4.59253 14.8438 4.75 14.8438ZM4.75 21.375C4.75 21.0227 4.64553 20.6783 4.44981 20.3854C4.25408 20.0925 3.97589 19.8642 3.65041 19.7293C3.32492 19.5945 2.96677 19.5592 2.62125 19.628C2.27572 19.6967 1.95833 19.8664 1.70922 20.1155C1.4601 20.3646 1.29046 20.682 1.22173 21.0275C1.153 21.373 1.18827 21.7312 1.32309 22.0567C1.45791 22.3821 1.68622 22.6603 1.97914 22.8561C2.27207 23.0518 2.61645 23.1563 2.96875 23.1563C3.44117 23.1563 3.89424 22.9686 4.22828 22.6345C4.56233 22.3005 4.75 21.8474 4.75 21.375ZM2.375 21.375C2.375 21.2576 2.40982 21.1428 2.47507 21.0451C2.54031 20.9475 2.63304 20.8714 2.74153 20.8265C2.85003 20.7815 2.96941 20.7698 3.08459 20.7927C3.19976 20.8156 3.30556 20.8721 3.3886 20.9552C3.47163 21.0382 3.52818 21.144 3.55109 21.2592C3.574 21.3743 3.56224 21.4937 3.5173 21.6022C3.47236 21.7107 3.39626 21.8034 3.29862 21.8687C3.20098 21.9339 3.08618 21.9688 2.96875 21.9688C2.81128 21.9688 2.66026 21.9062 2.54891 21.7948C2.43756 21.6835 2.375 21.5325 2.375 21.375ZM4.75 25.5313C4.3977 25.5313 4.05332 25.6357 3.76039 25.8314C3.46747 26.0272 3.23916 26.3054 3.10434 26.6308C2.96952 26.9563 2.93425 27.3145 3.00298 27.66C3.07171 28.0055 3.24135 28.3229 3.49047 28.572C3.73958 28.8211 4.05697 28.9908 4.4025 29.0595C4.74802 29.1283 5.10617 29.093 5.43166 28.9582C5.75714 28.8233 6.03533 28.595 6.23106 28.3021C6.42678 28.0092 6.53125 27.6648 6.53125 27.3125C6.53125 26.8401 6.34358 26.387 6.00953 26.053C5.67549 25.7189 5.22242 25.5313 4.75 25.5313ZM4.75 27.9063C4.63257 27.9063 4.51777 27.8714 4.42013 27.8062C4.32249 27.7409 4.24639 27.6482 4.20145 27.5397C4.15651 27.4312 4.14475 27.3118 4.16766 27.1967C4.19057 27.0815 4.24712 26.9757 4.33016 26.8927C4.41319 26.8096 4.51899 26.7531 4.63417 26.7302C4.74934 26.7073 4.86873 26.719 4.97722 26.764C5.08571 26.8089 5.17844 26.885 5.24369 26.9826C5.30893 27.0803 5.34375 27.1951 5.34375 27.3125C5.34375 27.47 5.28119 27.621 5.16985 27.7323C5.0585 27.8437 4.90747 27.9063 4.75 27.9063ZM19 9.5C19.3523 9.5 19.6967 9.39553 19.9896 9.19981C20.2825 9.00408 20.5108 8.72589 20.6457 8.40041C20.7805 8.07492 20.8158 7.71678 20.747 7.37125C20.6783 7.02572 20.5086 6.70833 20.2595 6.45922C20.0104 6.2101 19.693 6.04046 19.3475 5.97173C19.002 5.903 18.6438 5.93827 18.3183 6.07309C17.9929 6.20791 17.7147 6.43622 17.5189 6.72914C17.3232 7.02207 17.2188 7.36645 17.2188 7.71875C17.2188 8.19117 17.4064 8.64424 17.7405 8.97829C18.0745 9.31233 18.5276 9.5 19 9.5ZM19 7.125C19.1174 7.125 19.2322 7.15982 19.3299 7.22507C19.4275 7.29031 19.5036 7.38304 19.5486 7.49153C19.5935 7.60003 19.6053 7.71941 19.5823 7.83459C19.5594 7.94976 19.5029 8.05556 19.4198 8.1386C19.3368 8.22163 19.231 8.27818 19.1158 8.30109C19.0007 8.324 18.8813 8.31224 18.7728 8.2673C18.6643 8.22237 18.5716 8.14626 18.5063 8.04862C18.4411 7.95098 18.4062 7.83618 18.4062 7.71875C18.4062 7.56128 18.4688 7.41026 18.5802 7.29891C18.6915 7.18756 18.8425 7.125 19 7.125ZM26.125 9.5C26.4773 9.5 26.8217 9.39553 27.1146 9.19981C27.4075 9.00408 27.6358 8.72589 27.7707 8.40041C27.9055 8.07492 27.9408 7.71678 27.872 7.37125C27.8033 7.02572 27.6336 6.70833 27.3845 6.45922C27.1354 6.2101 26.818 6.04046 26.4725 5.97173C26.127 5.903 25.7688 5.93827 25.4433 6.07309C25.1179 6.20791 24.8397 6.43622 24.6439 6.72914C24.4482 7.02207 24.3437 7.36645 24.3437 7.71875C24.3437 8.19117 24.5314 8.64424 24.8655 8.97829C25.1995 9.31233 25.6526 9.5 26.125 9.5ZM26.125 7.125C26.2424 7.125 26.3572 7.15982 26.4549 7.22507C26.5525 7.29031 26.6286 7.38304 26.6735 7.49153C26.7185 7.60003 26.7302 7.71941 26.7073 7.83459C26.6844 7.94976 26.6279 8.05556 26.5448 8.1386C26.4618 8.22163 26.356 8.27818 26.2408 8.30109C26.1257 8.324 26.0063 8.31224 25.8978 8.2673C25.7893 8.22237 25.6966 8.14626 25.6313 8.04862C25.5661 7.95098 25.5312 7.83618 25.5312 7.71875C25.5312 7.56128 25.5938 7.41026 25.7052 7.29891C25.8165 7.18756 25.9675 7.125 26.125 7.125ZM11.875 9.5C12.2273 9.5 12.5717 9.39553 12.8646 9.19981C13.1575 9.00408 13.3858 8.72589 13.5207 8.40041C13.6555 8.07492 13.6908 7.71678 13.622 7.37125C13.5533 7.02572 13.3836 6.70833 13.1345 6.45922C12.8854 6.2101 12.568 6.04046 12.2225 5.97173C11.877 5.903 11.5188 5.93827 11.1933 6.07309C10.8679 6.20791 10.5897 6.43622 10.3939 6.72914C10.1982 7.02207 10.0938 7.36645 10.0938 7.71875C10.0938 8.19117 10.2814 8.64424 10.6155 8.97829C10.9495 9.31233 11.4026 9.5 11.875 9.5ZM11.875 7.125C11.9924 7.125 12.1072 7.15982 12.2049 7.22507C12.3025 7.29031 12.3786 7.38304 12.4236 7.49153C12.4685 7.60003 12.4803 7.71941 12.4573 7.83459C12.4344 7.94976 12.3779 8.05556 12.2948 8.1386C12.2118 8.22163 12.106 8.27818 11.9908 8.30109C11.8757 8.324 11.7563 8.31224 11.6478 8.2673C11.5393 8.22237 11.4466 8.14626 11.3813 8.04862C11.3161 7.95098 11.2812 7.83618 11.2812 7.71875C11.2812 7.56128 11.3438 7.41026 11.4552 7.29891C11.5665 7.18756 11.7175 7.125 11.875 7.125Z" fill="white"/>
<path d="M20.7812 30.2812H19.5938V31.4688H20.7812V30.2812Z" fill="white"/>
<path d="M23.1562 30.2812H21.9688V31.4688H23.1562V30.2812Z" fill="white"/>
<path d="M16.0312 30.2812H14.8438V31.4688H16.0312V30.2812Z" fill="white"/>
<path d="M18.4062 30.2812H17.2188V31.4688H18.4062V30.2812Z" fill="white"/>
</svg>
