<svg width="42" height="40" viewBox="0 0 42 40" fill="none" xmlns="http://www.w3.org/2000/svg">
<g clip-path="url(#clip0_204_1561)">
<path d="M18.2022 8.62069C18.2022 6.96402 17.0086 6.7752 16.0495 6.62371C15.0043 6.45858 14.4128 6.31499 14.4128 5.29192C14.4128 4.43325 15.2045 4.12812 15.8825 4.12812C16.2204 4.11572 16.556 4.19478 16.8617 4.35881C17.1674 4.52283 17.4344 4.76711 17.6408 5.07151L18.1321 4.62064C17.9112 4.29762 17.6362 4.02744 17.3231 3.82562C17.01 3.6238 16.6648 3.49432 16.3075 3.44464V2.33325H15.676V3.41807C14.5344 3.49705 13.7812 4.22935 13.7812 5.29192C13.7812 6.98987 14.9907 7.1812 15.9624 7.33448C16.9896 7.4971 17.5707 7.63674 17.5707 8.62069C17.5707 9.7091 16.5813 9.87171 15.9917 9.87171C14.9086 9.87171 14.4513 9.52566 14.0269 8.92833L13.5356 9.3792C13.7859 9.75421 14.1097 10.0577 14.4812 10.2657C14.8528 10.4736 15.2618 10.5802 15.676 10.5771V11.6666H16.3075V10.5735C17.4841 10.4644 18.2022 9.73817 18.2022 8.62069Z" fill="white"/>
<circle cx="15.8689" cy="7" r="6.5" stroke="white"/>
</g>
<path d="M4.93443 27.3333H8.21311V17.9999H4.60656M4.93443 27.3333V31.9999M4.93443 27.3333H1V17.9999H4.60656M4.60656 17.9999V13.3333" stroke="white"/>
<path d="M15.4261 35.3333H18.7048V25.9999H15.0983M15.4261 35.3333V39.9999M15.4261 35.3333H11.4917V25.9999H15.0983M15.0983 25.9999V21.3333" stroke="white"/>
<path d="M27.2296 27.3333H30.5083V17.9999H26.9017M27.2296 27.3333V31.9999M27.2296 27.3333H23.2952V17.9999H26.9017M26.9017 17.9999V13.3333" stroke="white"/>
<path d="M37.7213 35.3333H41V25.9999H37.3934M37.7213 35.3333V39.9999M37.7213 35.3333H33.7869V25.9999H37.3934M37.3934 25.9999V21.3333" stroke="white"/>
<defs>
<clipPath id="clip0_204_1561">
<rect width="14" height="14" fill="white" transform="translate(8.8689)"/>
</clipPath>
</defs>
</svg>
