<svg width="26" height="31" viewBox="0 0 26 31" fill="none" xmlns="http://www.w3.org/2000/svg">
<path d="M20.5554 30C20.9999 30 21.8887 29.7323 21.8887 28.6615V21.5231C21.8887 20.6308 21.3554 18.8461 19.2221 18.8461H12.5554V11.2615C12.5554 9.47693 9.4443 9.03077 9.4443 11.2615V23.3077C8.70356 23.159 7.0443 22.5938 6.33319 21.5231C5.88889 20.6308 3.66646 20.1846 4.11097 23.3077C4.30147 24.6462 5.08875 27.1446 8.99986 30M6.77778 14.3846L3.22222 17.5077L1 14.8308L11.6667 5.46154L15.2222 8.58462L20.5554 3.67692L18.3333 1H25L24.5556 7.69231L22.7778 5.9077L15.2222 12.6" stroke="white"/>
</svg>
