<svg width="30" height="32" viewBox="0 0 30 32" fill="none" xmlns="http://www.w3.org/2000/svg">
<g clip-path="url(#clip0_72_616)">
<path d="M24.8937 16.5744H24.1927L22.3405 19.7618L20.4884 16.5744H19.7874L21.6596 19.7618H19.871V20.3414H22.0319V21.2107H19.871V21.7902H22.0319V22.9492H22.6492V21.7902H24.8101V21.2107H22.6492V20.3414H24.8101V19.7618H23.0215L24.8937 16.5744Z" fill="white"/>
<path d="M28.8618 19.7618C28.8618 22.9831 26.1089 25.6366 22.6596 25.6366C19.2104 25.6366 16.4575 22.9831 16.4575 19.7618C16.4575 16.5406 19.2104 13.8871 22.6596 13.8871C26.1089 13.8871 28.8618 16.5406 28.8618 19.7618Z" stroke="white"/>
</g>
<path d="M14.8715 9.66844C13.6485 9.66844 12.7295 9.05831 12.3531 8.07474H15.548V7.5435H12.2104C12.1807 7.36739 12.1658 7.18993 12.1657 7.01227C12.1657 6.92462 12.1691 6.8359 12.1745 6.74666H15.548V6.21542H12.2459C12.4515 5.24645 13.1161 4.35611 14.8715 4.35611C16.1747 4.35611 16.7426 4.79358 17.2824 5.54873L17.8722 5.28842C17.3287 4.52849 16.589 3.82487 14.8715 3.82487C12.7221 3.82487 11.4893 4.98668 11.4893 7.01227C11.4893 8.88885 12.88 10.1997 14.8715 10.1997C16.589 10.1997 17.3287 9.49632 17.8722 8.73612L17.2824 8.47582C16.7426 9.23123 16.1747 9.66844 14.8715 9.66844Z" fill="white"/>
<path d="M21.2019 7.01227C21.2019 10.2335 18.449 12.8871 14.9997 12.8871C11.5505 12.8871 8.79761 10.2335 8.79761 7.01227C8.79761 3.79101 11.5505 1.13748 14.9997 1.13748C18.449 1.13748 21.2019 3.79101 21.2019 7.01227Z" stroke="white"/>
<g clip-path="url(#clip1_72_616)">
<path d="M9.5744 21.5197C9.5744 20.0487 8.26826 19.881 7.21886 19.7465C6.07512 19.5999 5.42793 19.4724 5.42793 18.564C5.42793 17.8016 6.29419 17.5307 7.03607 17.5307C7.40578 17.5196 7.77303 17.5899 8.10754 17.7355C8.44206 17.8811 8.73425 18.098 8.96003 18.3683L9.49769 17.968C9.2559 17.6812 8.95504 17.4413 8.61241 17.2621C8.26978 17.0829 7.89212 16.9679 7.50116 16.9238V15.937H6.81008V16.9002C5.56096 16.9703 4.73685 17.6205 4.73685 18.564C4.73685 20.0717 6.06026 20.2415 7.12349 20.3776C8.24753 20.522 8.88332 20.646 8.88332 21.5197C8.88332 22.4861 7.80075 22.6305 7.15562 22.6305C5.97042 22.6305 5.47008 22.3232 5.00568 21.7928L4.46802 22.1932C4.74195 22.5262 5.09625 22.7957 5.50279 22.9803C5.90934 23.1649 6.35695 23.2596 6.81008 23.2568V24.2242H7.50116V23.2536C8.78864 23.1567 9.5744 22.5119 9.5744 21.5197Z" fill="white"/>
<path d="M12.9041 19.7618C12.9041 23.0058 10.2708 25.6366 7.02116 25.6366C3.77148 25.6366 1.13818 23.0058 1.13818 19.7618C1.13818 16.5179 3.77148 13.8871 7.02116 13.8871C10.2708 13.8871 12.9041 16.5179 12.9041 19.7618Z" stroke="white"/>
</g>
<path d="M2.50226 12.1121C1.28594 10.0668 1.58721 5.68418 7.02118 5.68418M7.02118 5.68418L5.51489 5.09982M7.02118 5.68418L5.81615 6.56071" stroke="white"/>
<path d="M18.5305 26.5155C17.6577 28.7288 14.0054 31.177 10.6752 26.8886M10.6752 26.8886L11.136 28.4354M10.6752 26.8886L12.1072 27.3024" stroke="white"/>
<path d="M22.6852 5.60792C25.0669 5.57854 28.7166 8.03045 25.9997 12.7304M25.9997 12.7304L27.2595 11.7197M25.9997 12.7304L25.8421 11.2499" stroke="white"/>
<defs>
<clipPath id="clip0_72_616">
<rect width="14.0426" height="14.0245" fill="white" transform="translate(15.9575 12.7496)"/>
</clipPath>
<clipPath id="clip1_72_616">
<rect width="14.0426" height="14.0245" fill="white" transform="translate(0 12.7496)"/>
</clipPath>
</defs>
</svg>
