<svg width="26" height="26" viewBox="0 0 26 26" fill="none" xmlns="http://www.w3.org/2000/svg">
<path d="M13 1.33334C6.56704 1.33334 1.33337 6.56701 1.33337 13V17.8335C1.33337 19.0282 2.37987 20 3.66671 20H4.83337C5.14279 20 5.43954 19.8771 5.65833 19.6583C5.87712 19.4395 6.00004 19.1428 6.00004 18.8333V12.8332C6.00004 12.5238 5.87712 12.227 5.65833 12.0082C5.43954 11.7894 5.14279 11.6665 4.83337 11.6665H3.77404C4.42271 7.15151 8.30771 3.66668 13 3.66668C17.6924 3.66668 21.5774 7.15151 22.226 11.6665H21.1667C20.8573 11.6665 20.5605 11.7894 20.3417 12.0082C20.123 12.227 20 12.5238 20 12.8332V20C20 21.2868 18.9535 22.3333 17.6667 22.3333H15.3334V21.1667H10.6667V24.6667H17.6667C20.2404 24.6667 22.3334 22.5737 22.3334 20C23.6202 20 24.6667 19.0282 24.6667 17.8335V13C24.6667 6.56701 19.433 1.33334 13 1.33334Z" stroke="white"/>
</svg>
