<svg width="24" height="28" viewBox="0 0 24 28" fill="none" xmlns="http://www.w3.org/2000/svg">
<path d="M15.9999 22V23C15.9999 24.0609 15.5785 25.0783 14.8284 25.8284C14.0782 26.5786 13.0608 27 11.9999 27C10.9391 27 9.92166 26.5786 9.17151 25.8284C8.42137 25.0783 7.99994 24.0609 7.99994 23V22M22.7299 19.9644C21.1249 18 19.9918 17 19.9918 11.5844C19.9918 6.625 17.4593 4.85812 15.3749 4C15.0981 3.88625 14.8374 3.625 14.7531 3.34062C14.3874 2.09625 13.3624 1 11.9999 1C10.6374 1 9.61182 2.09688 9.24994 3.34188C9.16557 3.62938 8.90494 3.88625 8.62807 4C6.54119 4.85938 4.01119 6.62 4.01119 11.5844C4.00807 17 2.87494 18 1.26994 19.9644C0.604943 20.7781 1.18744 22 2.35057 22H21.6556C22.8124 22 23.3912 20.7744 22.7299 19.9644Z" stroke="white" stroke-linecap="round" stroke-linejoin="round"/>
</svg>
