<svg width="20" height="22" viewBox="0 0 20 22" fill="none" xmlns="http://www.w3.org/2000/svg">
<path fill-rule="evenodd" clip-rule="evenodd" d="M8.58579 1.58571C8.96086 1.21063 9.46957 0.99992 10 0.99992C10.5304 0.99992 11.0391 1.21063 11.4142 1.58571C11.6272 1.79866 11.7871 2.0547 11.8856 2.33333H8.11435C8.21286 2.0547 8.37283 1.79866 8.58579 1.58571ZM7.07498 2.33333C7.19955 1.78676 7.47596 1.28132 7.87868 0.878599C8.44129 0.31599 9.20435 -8.01086e-05 10 -8.01086e-05C10.7956 -8.01086e-05 11.5587 0.315991 12.1213 0.8786C12.524 1.28132 12.8004 1.78676 12.925 2.33333H17.75C18.8546 2.33333 19.75 3.22877 19.75 4.33333V19.8333C19.75 20.9379 18.8546 21.8333 17.75 21.8333H2.25C1.14543 21.8333 0.25 20.9379 0.25 19.8333V4.33333C0.25 3.22877 1.14543 2.33333 2.25 2.33333H7.07498ZM1.25 4.33333C1.25 3.78105 1.69772 3.33333 2.25 3.33333H17.75C18.3023 3.33333 18.75 3.78105 18.75 4.33333V19.8333C18.75 20.3856 18.3023 20.8333 17.75 20.8333H2.25C1.69772 20.8333 1.25 20.3856 1.25 19.8333V4.33333ZM14.3378 11.8973L11.6272 14.6079L12.3343 15.315L15.3984 12.2509L15.752 11.8973L15.3984 11.5438L12.3343 8.47966L11.6272 9.18676L14.3378 11.8973ZM8.00095 9.18689L5.29038 11.8975L8.00095 14.608L7.29385 15.3151L4.22972 12.251L3.87616 11.8975L4.22972 11.5439L7.29385 8.47978L8.00095 9.18689Z" fill="white"/>
</svg>
