<svg width="70" height="40" viewBox="0 0 70 40" fill="none" xmlns="http://www.w3.org/2000/svg">
<path d="M0.500718 25.5894H0V26.1024H0.500718V25.5894ZM0.500718 23.304V22.791H0V23.304H0.500718ZM11.7669 23.304H12.2676V22.791H11.7669V23.304ZM11.7669 25.5894V26.1024H12.2676V25.5894H11.7669ZM7.41814 25.5894V25.0764H6.91742V25.5894H7.41814ZM7.41814 39.1171V39.6301H7.91886V39.1171H7.41814ZM4.89452 39.1171H4.3938V39.6301H4.89452V39.1171ZM4.89452 25.5894H5.39523V25.0764H4.89452V25.5894ZM1.00144 25.5894V23.304H0V25.5894H1.00144ZM0.500718 23.817H11.7669V22.791H0.500718V23.817ZM11.2662 23.304V25.5894H12.2676V23.304H11.2662ZM11.7669 25.0764H7.41814V26.1024H11.7669V25.0764ZM6.91742 25.5894V39.1171H7.91886V25.5894H6.91742ZM7.41814 38.6041H4.89452V39.6301H7.41814V38.6041ZM5.39523 39.1171V25.5894H4.3938V39.1171H5.39523ZM4.89452 25.0764H0.500718V26.1024H4.89452V25.0764ZM12.0369 39.1171H11.5362V39.6301H12.0369V39.1171ZM12.0369 27.5747V27.0617H11.5362V27.5747H12.0369ZM14.4704 27.5747H14.9711V27.0617H14.4704V27.5747ZM14.4704 28.9598H13.9697V29.9028L14.7424 29.3905L14.4704 28.9598ZM18.3009 27.3208H18.8016V26.7022L18.2083 26.8166L18.3009 27.3208ZM18.3009 29.837L18.398 30.3403L18.8016 30.2585V29.837H18.3009ZM14.9886 30.8527L15.1782 31.3276L15.1848 31.3248L15.1913 31.3219L14.9886 30.8527ZM14.4929 31.0605L14.3034 30.5857L13.9922 30.7161V31.0605H14.4929ZM14.4929 39.1171V39.6301H14.9937V39.1171H14.4929ZM12.5376 39.1171V27.5747H11.5362V39.1171H12.5376ZM12.0369 28.0877H14.4704V27.0617H12.0369V28.0877ZM13.9697 27.5747V28.9598H14.9711V27.5747H13.9697ZM14.7424 29.3905C15.9739 28.5741 17.1905 28.0569 18.3935 27.8249L18.2083 26.8166C16.8577 27.0771 15.5206 27.6526 14.1984 28.5291L14.7424 29.3905ZM17.8002 27.3208V29.837H18.8016V27.3208H17.8002ZM18.2038 29.3338C16.8863 29.6006 15.7448 29.9488 14.786 30.3836L15.1913 31.3219C16.0651 30.9256 17.1319 30.5967 18.398 30.3403L18.2038 29.3338ZM14.7991 30.3779L14.3034 30.5857L14.6825 31.5353L15.1782 31.3276L14.7991 30.3779ZM13.9922 31.0605V39.1171H14.9937V31.0605H13.9922ZM14.4929 38.6041H12.0369V39.6301H14.4929V38.6041ZM27.0057 27.5747V27.0617H26.505V27.5747H27.0057ZM29.4392 27.5747H29.9399V27.0617H29.4392V27.5747ZM29.4392 39.1171V39.6301H29.9399V39.1171H29.4392ZM27.0057 39.1171H26.505V39.6301H27.0057V39.1171ZM27.0057 38.4015H27.5064V37.5145L26.7561 37.9568L27.0057 38.4015ZM20.8545 38.1014L20.4299 38.3733L20.4309 38.375L20.432 38.3768L20.8545 38.1014ZM20.0658 27.5747V27.0617H19.5651V27.5747H20.0658ZM22.5219 27.5747H23.0226V27.0617H22.5219V27.5747ZM22.8598 36.4162L23.3106 36.1928L22.8598 36.4162ZM26.6677 36.6701L26.4819 36.1938L26.4732 36.1974L26.4644 36.2013L26.6677 36.6701ZM27.0057 36.5316L27.1917 37.0079L27.5064 36.8789V36.5316H27.0057ZM27.0057 28.0877H29.4392V27.0617H27.0057V28.0877ZM28.9384 27.5747V39.1171H29.9399V27.5747H28.9384ZM29.4392 38.6041H27.0057V39.6301H29.4392V38.6041ZM27.5064 39.1171V38.4015H26.505V39.1171H27.5064ZM26.7561 37.9568C25.7093 38.5738 24.7817 38.858 23.9639 38.858V39.884C25.0088 39.884 26.1091 39.5219 27.2555 38.8461L26.7561 37.9568ZM23.9639 38.858C22.4842 38.858 21.6663 38.4528 21.2769 37.826L20.432 38.3768C21.0942 39.4428 22.3492 39.884 23.9639 39.884V38.858ZM21.2791 37.8295C20.8338 37.0996 20.5666 35.728 20.5666 33.5998H19.5651C19.5651 35.7501 19.8236 37.3795 20.4299 38.3733L21.2791 37.8295ZM20.5666 33.5998V27.5747H19.5651V33.5998H20.5666ZM20.0658 28.0877H22.5219V27.0617H20.0658V28.0877ZM22.0211 27.5747V33.6229H23.0226V27.5747H22.0211ZM22.0211 33.6229C22.0211 34.3277 22.0497 34.9294 22.1094 35.4232C22.1682 35.9084 22.261 36.326 22.4091 36.6396L23.3106 36.1928C23.2334 36.0293 23.1572 35.7428 23.1033 35.2969C23.0503 34.8596 23.0226 34.3033 23.0226 33.6229H22.0211ZM22.4091 36.6396C22.7614 37.3856 23.5442 37.6448 24.4371 37.6448V36.6188C23.6776 36.6188 23.4089 36.4009 23.3106 36.1928L22.4091 36.6396ZM24.4371 37.6448C25.3115 37.6448 26.1252 37.4786 26.8712 37.1389L26.4644 36.2013C25.8585 36.4773 25.185 36.6188 24.4371 36.6188V37.6448ZM26.8537 37.1464L27.1917 37.0079L26.8199 36.0553L26.4819 36.1938L26.8537 37.1464ZM27.5064 36.5316V27.5747H26.505V36.5316H27.5064ZM40.2316 29.9524L40.1643 30.4608L40.7198 30.5379L40.7321 29.9637L40.2316 29.9524ZM34.7112 29.8832L34.9688 30.3231L34.9719 30.3212L34.9746 30.3194L34.7112 29.8832ZM34.7563 31.6607L34.5322 32.1196L34.5362 32.1216L34.5402 32.1235L34.7563 31.6607ZM37.1447 32.2609L37.0556 32.7657L37.0588 32.7664L37.0623 32.7669L37.1447 32.2609ZM39.8261 33.2997L39.4941 33.6838L39.8261 33.2997ZM39.4655 38.5169L39.1714 38.1017L39.1696 38.1031L39.1676 38.1045L39.4655 38.5169ZM32.6833 38.9786L32.7732 38.474L32.7682 38.473L32.7629 38.4721L32.6833 38.9786ZM31.9848 38.8632L31.4846 38.8407L31.4648 39.2969L31.9049 39.3696L31.9848 38.8632ZM32.0749 36.7625L32.141 36.254L31.5988 36.1799L31.5747 36.7399L32.0749 36.7625ZM37.663 36.8317L37.4166 36.3851L37.4124 36.3875L37.4081 36.39L37.663 36.8317ZM37.6855 34.8926L37.4369 35.338L37.4492 35.3451L37.4614 35.3514L37.6855 34.8926ZM35.3647 34.3155L35.2793 34.821L35.2828 34.8216L35.2861 34.8221L35.3647 34.3155ZM32.6833 33.3228L32.987 32.915L32.6833 33.3228ZM32.9988 28.2211L32.7069 27.8042L32.7051 27.8055L32.7033 27.8069L32.9988 28.2211ZM39.5782 27.7132L39.6733 27.2096L39.6681 27.2086L39.6631 27.2077L39.5782 27.7132ZM40.2767 27.8517L40.7772 27.863L40.7864 27.4303L40.3718 27.3481L40.2767 27.8517ZM40.2987 29.4441C38.5244 29.1976 37.2111 29.0701 36.3786 29.0701V30.0961C37.1382 30.0961 38.3935 30.2148 40.1643 30.4608L40.2987 29.4441ZM36.3786 29.0701C35.5737 29.0701 34.892 29.1651 34.4476 29.447L34.9746 30.3194C35.1611 30.2011 35.591 30.0961 36.3786 30.0961V29.0701ZM34.4536 29.4433C33.9762 29.7368 33.7599 30.2214 33.7599 30.7835H34.7613C34.7613 30.5145 34.8454 30.399 34.9688 30.3231L34.4536 29.4433ZM33.7599 30.7835C33.7599 31.0609 33.8152 31.3311 33.9511 31.5715C34.0886 31.8147 34.2904 31.9957 34.5322 32.1196L34.9801 31.2019C34.8915 31.1565 34.8457 31.1066 34.8176 31.0574C34.7883 31.0054 34.7613 30.9216 34.7613 30.7835H33.7599ZM34.5402 32.1235C34.7626 32.2324 35.0905 32.3348 35.4931 32.436C35.9049 32.5395 36.4269 32.6493 37.0556 32.7657L37.2336 31.7561C36.6157 31.6417 36.116 31.5361 35.7317 31.4395C35.3381 31.3406 35.0955 31.2583 34.9724 31.1979L34.5402 32.1235ZM37.0623 32.7669C38.2969 32.9777 39.0757 33.3042 39.4941 33.6838L40.158 32.9157C39.5249 32.3411 38.5162 31.975 37.2268 31.7549L37.0623 32.7669ZM39.4941 33.6838C39.8576 34.0138 40.114 34.6731 40.114 35.8391H41.1154C41.1154 34.5734 40.8458 33.5399 40.158 32.9157L39.4941 33.6838ZM40.114 35.8391C40.114 36.937 39.7747 37.6531 39.1714 38.1017L39.7595 38.9321C40.6883 38.2418 41.1154 37.1727 41.1154 35.8391H40.114ZM39.1676 38.1045C38.539 38.5812 37.5591 38.858 36.1533 38.858V39.884C37.6615 39.884 38.8897 39.5915 39.7632 38.9293L39.1676 38.1045ZM36.1533 38.858C35.2788 38.858 34.1549 38.7327 32.7732 38.474L32.5932 39.4832C34.0057 39.7478 35.1949 39.884 36.1533 39.884V38.858ZM32.7629 38.4721L32.0644 38.3567L31.9049 39.3696L32.6035 39.4851L32.7629 38.4721ZM32.485 38.8857L32.5752 36.785L31.5747 36.7399L31.4846 38.8407L32.485 38.8857ZM32.0086 37.271C33.8127 37.5174 35.1406 37.6448 35.973 37.6448V36.6188C35.2129 36.6188 33.9424 36.5 32.141 36.254L32.0086 37.271ZM35.973 37.6448C36.7814 37.6448 37.4632 37.5485 37.9176 37.2734L37.4081 36.39C37.2015 36.5151 36.7567 36.6188 35.973 36.6188V37.6448ZM37.9093 37.2783C38.4361 36.9733 38.6819 36.4555 38.6819 35.8391H37.6805C37.6805 36.146 37.5806 36.29 37.4166 36.3851L37.9093 37.2783ZM38.6819 35.8391C38.6819 35.5474 38.6298 35.2644 38.4984 35.0136C38.364 34.757 38.1614 34.5629 37.9093 34.4337L37.4614 35.3514C37.5398 35.3916 37.5851 35.4399 37.6159 35.4987C37.6499 35.5634 37.6805 35.669 37.6805 35.8391H38.6819ZM37.9338 34.4472C37.7103 34.3163 37.3783 34.2086 36.9867 34.1113C36.5817 34.0105 36.0657 33.9099 35.443 33.8088L35.2861 34.8221C35.8952 34.9211 36.3819 35.0167 36.7504 35.1083C37.1327 35.2033 37.3453 35.2842 37.4369 35.338L37.9338 34.4472ZM35.4498 33.81C34.2628 33.5998 33.4629 33.2872 32.987 32.915L32.3794 33.7306C33.0451 34.251 34.0328 34.6002 35.2793 34.821L35.4498 33.81ZM32.987 32.915C32.6004 32.6128 32.3278 31.9989 32.3278 30.8758H31.3264C31.3264 32.1228 31.6243 33.1402 32.3794 33.7306L32.987 32.915ZM32.3278 30.8758C32.3278 29.8183 32.668 29.1039 33.2942 28.6353L32.7033 27.8069C31.767 28.5078 31.3264 29.5633 31.3264 30.8758H32.3278ZM33.2904 28.638C33.9819 28.1301 34.8862 27.8569 36.0406 27.8569V26.8309C34.7313 26.8309 33.6079 27.1424 32.7069 27.8042L33.2904 28.638ZM36.0406 27.8569C36.9635 27.8569 38.1124 27.9754 39.4933 28.2188L39.6631 27.2077C38.2498 26.9585 37.0403 26.8309 36.0406 26.8309V27.8569ZM39.4831 28.2169L40.1816 28.3554L40.3718 27.3481L39.6733 27.2096L39.4831 28.2169ZM39.776 27.8405L39.7309 29.9412L40.7321 29.9637L40.7772 27.863L39.776 27.8405ZM49.036 29.7216V30.2346H49.5367V29.7216H49.036ZM45.9266 29.7216V29.2086H45.4258V29.7216H45.9266ZM46.1294 36.6701L46.586 36.4596L46.1294 36.6701ZM47.1658 37.1318V37.6448H47.1751L47.1841 37.6445L47.1658 37.1318ZM49.0135 37.0626L49.5135 37.0331L49.4852 36.5315L48.9952 36.5499L49.0135 37.0626ZM49.1262 39.0709L49.2215 39.5745L49.6512 39.4891L49.6261 39.0415L49.1262 39.0709ZM44.1916 38.4707L43.7995 38.7899L43.802 38.7931L43.8045 38.7961L44.1916 38.4707ZM43.4931 29.7216H43.9938V29.2086H43.4931V29.7216ZM42.051 29.7216H41.5503V30.2346H42.051V29.7216ZM42.051 27.5747V27.0617H41.5503V27.5747H42.051ZM43.4931 27.5747V28.0877H43.9938V27.5747H43.4931ZM43.4931 24.2274V23.7144H42.9924V24.2274H43.4931ZM45.9266 24.2274H46.4273V23.7144H45.9266V24.2274ZM45.9266 27.5747H45.4258V28.0877H45.9266V27.5747ZM49.036 27.5747H49.5367V27.0617H49.036V27.5747ZM49.036 29.2086H45.9266V30.2346H49.036V29.2086ZM45.4258 29.7216V34.8003H46.4273V29.7216H45.4258ZM45.4258 34.8003C45.4258 35.2803 45.4431 35.6912 45.4797 36.0285C45.5152 36.3559 45.5726 36.6526 45.6727 36.8806L46.586 36.4596C46.551 36.3798 46.5072 36.211 46.4749 35.9151C46.4438 35.6291 46.4273 35.259 46.4273 34.8003H45.4258ZM45.6727 36.8806C45.9353 37.4783 46.5592 37.6448 47.1658 37.6448V36.6188C46.9268 36.6188 46.7768 36.5848 46.6897 36.5459C46.6136 36.512 46.595 36.4804 46.586 36.4596L45.6727 36.8806ZM47.1841 37.6445L49.0318 37.5752L48.9952 36.5499L47.1476 36.6192L47.1841 37.6445ZM48.5135 37.092L48.6262 39.1004L49.6261 39.0415L49.5135 37.0331L48.5135 37.092ZM49.0308 38.5673C48.0321 38.7659 47.3043 38.858 46.8279 38.858V39.884C47.4032 39.884 48.2073 39.7762 49.2215 39.5745L49.0308 38.5673ZM46.8279 38.858C45.6014 38.858 44.9154 38.5656 44.5786 38.1453L43.8045 38.7961C44.4294 39.5763 45.501 39.884 46.8279 39.884V38.858ZM44.5836 38.1515C44.4174 37.9374 44.2654 37.5902 44.1578 37.0664C44.0509 36.5471 43.9938 35.8868 43.9938 35.0773H42.9924C42.9924 35.9299 43.0519 36.6662 43.1779 37.2781C43.3028 37.8854 43.5001 38.4039 43.7995 38.7899L44.5836 38.1515ZM43.9938 35.0773V29.7216H42.9924V35.0773H43.9938ZM43.4931 29.2086H42.051V30.2346H43.4931V29.2086ZM42.5517 29.7216V27.5747H41.5503V29.7216H42.5517ZM42.051 28.0877H43.4931V27.0617H42.051V28.0877ZM43.9938 27.5747V24.2274H42.9924V27.5747H43.9938ZM43.4931 24.7404H45.9266V23.7144H43.4931V24.7404ZM45.4258 24.2274V27.5747H46.4273V24.2274H45.4258ZM45.9266 28.0877H49.036V27.0617H45.9266V28.0877ZM48.5353 27.5747V29.7216H49.5367V27.5747H48.5353Z" fill="white"/>
<path d="M0 16.0272L3.77989 0.343439H8.72282L12.5251 16.0272H10.0201L9.19251 12.6615H3.3102L2.48265 16.0272H0ZM5.70338 2.47277L3.80225 10.4177H8.70045L6.82169 2.47277H5.70338ZM13.0173 4.5792H15.567L17.7142 13.8979H18.4299L20.6665 4.5792H23.1492L20.2416 16.0272H15.9025L13.0173 4.5792ZM33.1775 8.10519V13.3255C33.1924 13.6613 33.2744 13.9131 33.4236 14.0811C33.5876 14.2337 33.8336 14.3329 34.1616 14.3787L34.0945 16.2791C32.8122 16.2791 31.8206 15.9967 31.1198 15.4319C29.927 15.9967 28.7267 16.2791 27.5189 16.2791C25.2972 16.2791 24.1864 15.0656 24.1864 12.6386C24.1864 11.4785 24.4847 10.639 25.081 10.12C25.6923 9.60106 26.6242 9.28815 27.8767 9.1813L30.762 8.92945V8.10519C30.762 7.49463 30.6278 7.06724 30.3594 6.82301C30.1059 6.57879 29.7257 6.45668 29.2187 6.45668C28.2644 6.45668 27.0716 6.51773 25.6401 6.63985L24.9244 6.68564L24.8349 4.92264C26.4602 4.52578 27.9513 4.32735 29.3082 4.32735C30.68 4.32735 31.6641 4.63263 32.2605 5.24319C32.8719 5.83849 33.1775 6.79249 33.1775 8.10519ZM28.1675 10.9443C27.1386 11.0359 26.6242 11.6083 26.6242 12.6615C26.6242 13.7147 27.079 14.2413 27.9886 14.2413C28.7341 14.2413 29.5244 14.1192 30.3594 13.875L30.762 13.7376V10.6924L28.1675 10.9443ZM38.6761 16.0272H36.2382V4.5792H38.6538V5.28898C39.7423 4.64789 40.7711 4.32735 41.7403 4.32735C43.2314 4.32735 44.2453 4.76237 44.7821 5.63242C45.3338 6.48721 45.6097 7.90676 45.6097 9.89108V16.0272H43.1941V9.95977C43.1941 8.72338 43.0599 7.8457 42.7915 7.32673C42.538 6.80775 42.0087 6.54826 41.2035 6.54826C40.4431 6.54826 39.7124 6.7009 39.0116 7.00618L38.6761 7.14356V16.0272ZM54.4644 6.70853H51.3779V11.7457C51.3779 12.6768 51.445 13.295 51.5792 13.6002C51.7134 13.9055 52.0563 14.0582 52.608 14.0582L54.4421 13.9895L54.5539 15.9814C53.5549 16.1799 52.7944 16.2791 52.2725 16.2791C51.0051 16.2791 50.1328 15.9814 49.6557 15.3861C49.1935 14.7908 48.9623 13.6689 48.9623 12.0204V6.70853H47.5309V4.5792H48.9623V1.25928H51.3779V4.5792H54.4644V6.70853ZM56.4637 16.0272V4.5792H58.9016V16.0272H56.4637ZM56.4637 2.63304V0H58.9016V2.63304H56.4637ZM69.6198 6.93749C67.8603 6.69327 66.5854 6.57116 65.7952 6.57116C65.0049 6.57116 64.4532 6.67037 64.1401 6.86881C63.8418 7.05197 63.6927 7.34962 63.6927 7.76175C63.6927 8.17388 63.8568 8.4639 64.1848 8.6318C64.5277 8.7997 65.318 8.99814 66.5556 9.2271C67.8081 9.44079 68.6953 9.78423 69.2172 10.2574C69.7391 10.7306 70 11.5701 70 12.776C70 13.9818 69.6198 14.8671 68.8593 15.4319C68.1138 15.9967 67.0178 16.2791 65.5715 16.2791C64.6619 16.2791 63.5138 16.1493 62.1271 15.8898L61.4337 15.7754L61.5232 13.6918C63.3125 13.936 64.6023 14.0582 65.3926 14.0582C66.1828 14.0582 66.742 13.9589 67.07 13.7605C67.413 13.5621 67.5844 13.2339 67.5844 12.776C67.5844 12.3181 67.4204 12.0051 67.0924 11.8372C66.7793 11.6541 66.0114 11.4633 64.7887 11.2648C63.5809 11.0511 62.6937 10.723 62.1271 10.2803C61.5605 9.83766 61.2772 9.02866 61.2772 7.85334C61.2772 6.67801 61.6649 5.80033 62.4402 5.22029C63.2305 4.64026 64.237 4.35024 65.4597 4.35024C66.4139 4.35024 67.5844 4.47236 68.9712 4.71658L69.6645 4.85396L69.6198 6.93749Z" fill="white"/>
<line y1="19.0352" x2="31.7442" y2="19.0352" stroke="#7000FF"/>
</svg>
